name 900006 ik
datacolumns 165
datarows 4
range 0.7666666666666664 0.7916666666666663
cursor 1.0 1.0 0.0
keys m_key
wrap
enforce_loops no
enforce_constraints no
calc_derivatives 0.008333
event_color 1.000000 0.000000 1.000000
endheader

time	calcn_r_tx	calcn_r_ty	calcn_r_tz	calcn_r_r1	calcn_r_r2	calcn_r_r3	calcn_l_tx	calcn_l_ty	calcn_l_tz	calcn_l_r1	calcn_l_r2	calcn_l_r3	pelvis_tz	pelvis_tx	pelvis_ty	pelvis_tilt	pelvis_list	pelvis_rotation	hip_flexion_r	hip_adduction_r	hip_rotation_r	knee_angle_r	ankle_angle_r	subtalar_angle_r	mtp_angle_r	hip_flexion_l	hip_adduction_l	hip_rotation_l	knee_angle_l	ankle_angle_l	subtalar_angle_l	mtp_angle_l	lumbar_extension	lumbar_bending	lumbar_rotation	ground_force_px	ground_force_py	ground_force_pz	ground_force_vx	ground_force_vy	ground_force_vz	ground_force_px	ground_force_py	ground_force_pz	ground_force_vx	ground_force_vy	ground_force_vz	ground_torque_x	ground_torque_y	ground_torque_z	ground_torque_x	ground_torque_y	ground_torque_z	 midhip_px	 midhip_py	 midhip_pz	 hip_r_px	 hip_r_py	 hip_r_pz	 hip_l_px	 hip_l_py	 hip_l_pz	 knee_r_px	 knee_r_py	 knee_r_pz	 knee_l_px	 knee_l_py	 knee_l_pz	 ankle_r_px	 ankle_r_py	 ankle_r_pz	 ankle_l_px	 ankle_l_py	 ankle_l_pz	 midasis_px	 midasis_py	 midasis_pz	 asis_r_px	 asis_r_py	 asis_r_pz	 asis_l_px	 asis_l_py	 asis_l_pz	 psis_r_px	 psis_r_py	 psis_r_pz	 psis_l_px	 psis_l_py	 psis_l_pz	 epicondLat_r_px	 epicondLat_r_py	 epicondLat_r_pz	 epicondLat_l_px	 epicondLat_l_py	 epicondLat_l_pz	 epicondMed_r_px	 epicondMed_r_py	 epicondMed_r_pz	 epicondMed_l_px	 epicondMed_l_py	 epicondMed_l_pz	 malleolusLat_r_px	 malleolusLat_r_py	 malleolusLat_r_pz	 malleolusLat_l_px	 malleolusLat_l_py	 malleolusLat_l_pz	 malleolusMedv_r_px	 malleolusMedv_r_py	 malleolusMedv_r_pz	 malleolusMedv_l_px	 malleolusMedv_l_py	 malleolusMedv_l_pz	 neck_px	 neck_py	 neck_pz	 subclavicle_r_px	 subclavicle_r_py	 subclavicle_r_pz	 subclavicle_l_px	 subclavicle_l_py	 subclavicle_l_pz	 sternalnotch_px	 sternalnotch_py	 sternalnotch_pz	 xyphoidprocess_px	 xyphoidprocess_py	 xyphoidprocess_pz	 thighwand_r_px	 thighwand_r_py	 thighwand_r_pz	 thighwand_l_px	 thighwand_l_py	 thighwand_l_pz	 upperleg1_r_px	 upperleg1_r_py	 upperleg1_r_pz	 upperleg1_l_px	 upperleg1_l_py	 upperleg1_l_pz	 upperleg2_r_px	 upperleg2_r_py	 upperleg2_r_pz	 upperleg2_l_px	 upperleg2_l_py	 upperleg2_l_pz	 shankwand_r_px	 shankwand_r_py	 shankwand_r_pz	 shankwand_l_px	 shankwand_l_py	 shankwand_l_pz	 lowerleg1_r_px	 lowerleg1_r_py	 lowerleg1_r_pz	 lowerleg1_l_px	 lowerleg1_l_py	 lowerleg1_l_pz	 toe_r_px	 toe_r_py	 toe_r_pz	 toe_l_px	 toe_l_py	 toe_l_pz	
      0.7666666666666664	      0.7251717802909777	      0.0958687253394504	     -0.1530688845752252	     -0.1532919345690571	     -3.1949265969346352	    -15.5291987200299120	      0.6834363133948225	      0.0326488735813994	     -0.2514176298689184	     -4.5171465483050870	      3.8881215286630213	     -0.4234657656923413	     -0.2352178590522411	      0.8397692816083937	      0.8321821274840047	      0.5259220907956230	     -1.9229433578853021	      1.1651285625391294	     22.7472412157081860	      1.2682267170389936	     -4.2879029350135980	    -45.5043428529146680	      6.9167079347035951	      0.0000000000000000	      0.0000000000000000	     -0.2155033624258836	      3.1628291603080676	     -3.9158146808388605	     -7.0370055866128034	      6.4199725600179525	      0.0000000000000000	      0.0000000000000000	     -7.0171711786183391	      2.6330674994860122	     -2.2852169032116705	      0.8009875612526802	      0.0000000000000000	     -0.1545071203082497	      0.0000000000000853	      0.0000000000006045	      0.0000000000000759	      0.7793707409141734	      0.0000000000000000	     -0.2589993591410256	     -1.7980380329108048	    317.3009496736262900	     12.0759330109558910	      0.0000000000000000	     -0.0000000000000098	      0.0000000000000000	      0.0000000000000000	     -2.0548624019456323	      0.0000000000000000	      0.8026140322085109	      0.7770815167196434	     -0.2364595928840400	      0.7958386900048827	      0.7764478942843466	     -0.1794359267094745	      0.8093890657282600	      0.7777151559745066	     -0.2934833889364993	      0.8963290862693021	      0.4317886410807466	     -0.1582130879715767	      0.7379669716573178	      0.4272081070404033	     -0.2751364813367692	      0.7821639883138741	      0.1071510117382455	     -0.1559317780832045	      0.7312806166278185	      0.0651707261205849	     -0.2599850521191269	      0.8393781835930547	      0.8483973504739630	     -0.2318786202418768	      0.8417218726438125	      0.8527302191779054	     -0.1220496221726190	      0.8370341838872925	      0.8440640883258442	     -0.3417070635794758	      0.6640220031495200	      0.8841407495490216	     -0.1906842656565064	      0.6661670862941951	      0.8799123959789788	     -0.2438478027030451	      0.9116155869896409	      0.4382408225882576	     -0.0981440844533316	      0.7638664077799072	      0.4147755705534638	     -0.3332981042881659	      0.9134171919431471	      0.4371334358878540	     -0.2233391254171667	      0.7614419765402852	      0.4223723900931440	     -0.2139164222299403	      0.7752240391155472	      0.1097712380459373	     -0.1191702001635491	      0.7224394457868546	      0.0643531949218184	     -0.2953885683257804	      0.7835761840709280	      0.0989322844441660	     -0.1886131842729718	      0.7265245744137381	      0.0678718543748275	     -0.2262632439361596	      0.7320835555994282	      1.2757108442863945	     -0.2349880525149759	      0.8363233768564471	      1.1999695020562262	     -0.1815713605890913	      0.8388384669023132	      1.2003035621211331	     -0.2872725417956810	      0.8348088778099277	      1.2000387947705988	     -0.2375668941969148	      0.8375528068482304	      1.0979260556482668	     -0.2403410141202619	      0.9816605985113119	      0.6149912977707424	     -0.1272891848456114	      0.8738290645573611	      0.5573532042016188	     -0.3579426185594028	      0.9168316971193877	      0.6297744964420990	     -0.0931121440452244	      0.8570277349050476	      0.6065109876766691	     -0.2940699385844993	      0.9284349804967099	      0.5726788476452820	     -0.0989260460042910	      0.8450475878866774	      0.5503074968506606	     -0.2830121127918512	      0.9326185480950209	      0.1787576588862178	     -0.1253804405427318	      0.7258077724027150	      0.1619894523003009	     -0.3896212516255071	      0.8567362858293174	      0.1889489422921247	     -0.1473313826892388	      0.7274975226141014	      0.1577192908661632	     -0.3099623398449710	      0.8553386972525465	      0.0719968977580291	     -0.1440604622942439	      0.8179110001308136	      0.0451687028035891	     -0.2608291316082639	
      0.7749999999999997	      0.7594496742756415	      0.0878347902585379	     -0.1518693155569818	     -0.2157991930773884	     -2.9692437498721076	    -12.1453054127027490	      0.6839012069166188	      0.0322505746384118	     -0.2512579176450199	     -4.4324511600887657	      3.8578392908778008	     -0.4156522086660217	     -0.2361255846752848	      0.8512754380716916	      0.8313872737488821	      0.5535352518657618	     -2.0426074884841294	      1.5494090655032307	     23.4253722083484770	      1.2656052017314441	     -4.3685543117391195	    -43.2247402050029310	      7.3376590704017639	      0.0000000000000000	      0.0000000000000000	     -1.4492846550371665	      3.0777818804894843	     -3.5445293049260349	     -6.3937673020671575	      6.9902183853626587	      0.0000000000000000	      0.0000000000000000	     -7.0499686858686212	      2.8535774212256437	     -2.6583356284992181	      0.8315432731310525	      0.0000000000000000	     -0.1546609403682517	     -0.0000000000003513	     -0.0000000000014435	     -0.0000000000002269	      0.7849154234957495	      0.0000000000000000	     -0.2585741889933755	     -1.1927857552405481	    325.7975795720532200	     11.1550812405834940	      0.0000000000000000	      0.0000000000000292	      0.0000000000000000	      0.0000000000000000	     -2.2255965910964286	      0.0000000000000000	      0.8135512938900115	      0.7761883386347015	     -0.2366651729498702	      0.8070418099914397	      0.7756480622050770	     -0.1796095699722939	      0.8200603496940897	      0.7767285971471654	     -0.2937208045783189	      0.9104838704371145	      0.4316591650843137	     -0.1588547944219390	      0.7416610117220581	      0.4286640899997832	     -0.2746361280404450	      0.8144014290075041	      0.1017475844476201	     -0.1558054312660545	      0.7316008904650490	      0.0653073270778999	     -0.2594588954932118	      0.8503239410941557	      0.8475601307364266	     -0.2323581603896025	      0.8531733420126070	      0.8520781830694644	     -0.1225483748437948	      0.8474742018566638	      0.8430416236291392	     -0.3421672815652717	      0.6751381397536285	      0.8832809561430352	     -0.1901875955205375	      0.6772037378089431	      0.8789241425139949	     -0.2430287655127946	      0.9271900111664685	      0.4389015098324905	     -0.0987498305791543	      0.7676274763373523	      0.4145068540117164	     -0.3328201111799992	      0.9267928082417497	      0.4367567434528019	     -0.2230357073967568	      0.7649859825408010	      0.4226915475018229	     -0.2139927345335225	      0.8072903449531035	      0.1040988438102413	     -0.1190589515550452	      0.7226373539118950	      0.0645853824296255	     -0.2948340117990070	      0.8165325166039613	      0.0932303913457740	     -0.1883654290656641	      0.7270083604637406	      0.0679265676872181	     -0.2257067099685902	      0.7431648225114047	      1.2747652380888728	     -0.2349731278444554	      0.8474724250490786	      1.1989066160524999	     -0.1815675176095767	      0.8500508885451908	      1.1993166413488705	     -0.2872450401283674	      0.8459914468279095	      1.1990163350489291	     -0.2375530651319897	      0.8487323461417115	      1.0969055161978118	     -0.2403992707655663	      0.9942445391415442	      0.6158411513889359	     -0.1284739594464779	      0.8804959366961571	      0.5554105417214144	     -0.3576410625458322	      0.9294728006038644	      0.6300033977543146	     -0.0937498506728138	      0.8648490639807005	      0.6048310467319678	     -0.2933946125489766	      0.9415650326210071	      0.5730365577861125	     -0.0993959537382100	      0.8515467709176363	      0.5488856146189582	     -0.2825717546395639	      0.9612480182025028	      0.1811008960069741	     -0.1252417416564820	      0.7266330865180891	      0.1620357390236542	     -0.3892055886128319	      0.8851463271317638	      0.1867226951590238	     -0.1471709048622481	      0.7285807738257427	      0.1576931595555504	     -0.3093537455804790	      0.8896446322963039	      0.0705545352229818	     -0.1427846624191666	      0.8180794901493217	      0.0450305191486336	     -0.2604169704392961	
      0.7833333333333330	      0.7921842875332296	      0.0805336167243663	     -0.1512404834662295	     -0.1743317648144226	     -2.8547611506752544	     -9.2474883692634613	      0.6840045615502611	      0.0323231856878101	     -0.2513119324378679	     -4.3481153505837673	      3.5492023381737838	     -0.4258820869423783	     -0.2363733565758450	      0.8627099871254111	      0.8305295532456131	      0.5864090678156412	     -1.9413499490927111	      1.7615347447737046	     23.9213926419457690	      1.1101553944284284	     -4.3734793337725648	    -40.8717925123068680	      7.3530417296282042	     -0.0000000000000000	      0.0000000000000000	     -2.6829122108016383	      3.2019508658675053	     -3.0769731825276985	     -5.8461047747630230	      7.6336654661538033	     -0.0000000000000000	      0.0000000000000000	     -7.1789912029912646	      3.0153154780480484	     -2.9909437299967561	      0.8619024509329346	      0.0000000000000000	     -0.1548138406091273	      0.0000000000014405	      0.0000000000054111	      0.0000000000008888	      0.7906114130864621	      0.0000000000000000	     -0.2581635684037534	     -0.4167446892238469	    334.3290339766203400	     10.5492988079186690	      0.0000000000000000	     -0.0000000000001142	      0.0000000000000000	      0.0000000000000000	     -2.3827581493013743	      0.0000000000000000	      0.8246033478858801	      0.7750745859604800	     -0.2368523081763719	      0.8183375947825620	      0.7745824760493829	     -0.1797690653975644	      0.8308686319406543	      0.7755666100104446	     -0.2939354823311986	      0.9246245389349816	      0.4309739627089310	     -0.1592921833175922	      0.7453359603844042	      0.4302753419768026	     -0.2741648224801925	      0.8467014991322669	      0.0969221919165457	     -0.1556325373219828	      0.7319108308771626	      0.0654708890305425	     -0.2588982094487083	      0.8613390881632355	      0.8465163494465676	     -0.2327586437924489	      0.8646473545340306	      0.8511411135530100	     -0.1229570281833312	      0.8580304582842152	      0.8418911445615673	     -0.3425595629863319	      0.6863376025355356	      0.8820876262013445	     -0.1896943313842754	      0.6882877445706875	      0.8776636030026346	     -0.2422619617506062	      0.9423542880935198	      0.4392100368449114	     -0.0991762326872582	      0.7714525999943175	      0.4142416494057240	     -0.3323514446636156	      0.9401161782244339	      0.4357677645470147	     -0.2225866587467058	      0.7685554224938104	      0.4231579900694374	     -0.2138493310633685	      0.8393671447665458	      0.0989932561210890	     -0.1189143512850126	      0.7228289320590819	      0.0648435111776490	     -0.2942451434169890	      0.8495566528479432	      0.0882075584330461	     -0.1880787425245606	      0.7274948559052744	      0.0680033933207005	     -0.2251178717154875	      0.7542720976331104	      1.2736007193921484	     -0.2348981023399794	      0.8586447879636208	      1.1975994761548143	     -0.1816091516649715	      0.8612295465961511	      1.1980775964783985	     -0.2872811745317040	      0.8571670801470587	      1.1977464130186233	     -0.2375922643351200	      0.8598694979882309	      1.0956364423834821	     -0.2405049628336194	      1.0065609212239208	      0.6160869998244696	     -0.1296662789773193	      0.8872666821451147	      0.5534090266348789	     -0.3572702529853311	      0.9418988196267742	      0.6296915403771696	     -0.0943966151462362	      0.8728596541560888	      0.6030654435664382	     -0.2925845494028998	      0.9545261016037347	      0.5729279390294975	     -0.0998341039043621	      0.8581582472897926	      0.5474015177405219	     -0.2819768502299900	      0.9894534348267561	      0.1837804459939437	     -0.1248108873642010	      0.7274700971101236	      0.1621289609281408	     -0.3887741224120211	      0.9134097599986694	      0.1848811974393806	     -0.1467928582900273	      0.7296832755826309	      0.1576897352852566	     -0.3087118668250665	      0.9237713308784639	      0.0695950447105446	     -0.1413950983842353	      0.8182722739551475	      0.0449094542642172	     -0.2599896093276312	
      0.7916666666666663	      0.8276421739962845	      0.0736569289970635	     -0.1498385880699512	     -0.1895155791052809	     -2.8913287193587873	     -6.1423320651712796	      0.6847578075348143	      0.0326000367747674	     -0.2526141851721964	     -4.1877761471428245	      3.6943833104483570	     -1.0484522005396788	     -0.2366025801987526	      0.8747274861882408	      0.8295434359185222	      0.6805757394310549	     -1.8922700224442845	      1.8344724224183460	     24.4001012229506390	      0.9280221945646737	     -4.3834041047699097	    -38.3114801059443410	      7.3169255721242887	      0.0000000000000000	      0.0000000000000000	     -3.9906674007050289	      3.1382329670457363	     -3.0919951172593700	     -5.2206408211580912	      7.5997534704343845	      0.0000000000000000	      0.0000000000000000	     -7.1742702608895499	      3.0155802195402632	     -2.9864398180291443	      0.8919820416133312	      0.0000000000000000	     -0.1549653406628043	     -0.0000000000037184	     -0.0000000000137407	     -0.0000000000022756	      0.7964489959183360	      0.0000000000000000	     -0.2577807883924710	      0.6792082503142501	    342.8518886190863700	     10.3054041877949040	      0.0000000000000000	      0.0000000000002923	      0.0000000000000000	      0.0000000000000000	     -2.5114003867327392	      0.0000000000000000	      0.8357865711751856	      0.7737573330057018	     -0.2370159088492338	      0.8297413463894942	      0.7732665270095510	     -0.1799090335592046	      0.8418313546134671	      0.7742479625946509	     -0.2941226480748117	      0.9387097015774057	      0.4297932493045041	     -0.1594984288887867	      0.7490764419235548	      0.4318455935848170	     -0.2737207405897122	      0.8789610018395500	      0.0927224345148205	     -0.1554243439638284	      0.7322127719424117	      0.0656570525730282	     -0.2583006259990740	      0.8724376095754638	      0.8452822460846567	     -0.2330741184503502	      0.8761533014402522	      0.8499352162823590	     -0.1232697102272546	      0.8687215565566452	      0.8406289228017713	     -0.3428778869492504	      0.6976105756239889	      0.8805849383359167	     -0.1891994743373187	      0.6994024880271585	      0.8761756012881879	     -0.2415648355304952	      0.9571416703111394	      0.4391855179676527	     -0.0994056063269195	      0.7753461093876101	      0.4139830523747775	     -0.3318954472316923	      0.9533463259027801	      0.4342748672105404	     -0.2220776135649017	      0.7722414925710396	      0.4237356040860526	     -0.2134461491606907	      0.8713695010319628	      0.0944898214413082	     -0.1187438533871570	      0.7230159157167259	      0.0651234643629022	     -0.2936194120059690	      0.8824969744984149	      0.0839990586947524	     -0.1877915909034659	      0.7279848752093926	      0.0681333629509430	     -0.2244972643891079	      0.7654074989759484	      1.2721982381140216	     -0.2347927196308229	      0.8698355866820483	      1.1960790789459024	     -0.1816653805218111	      0.8723802799436867	      1.1966058974727960	     -0.2873670427239430	      0.8683365911477851	      1.1962531173295254	     -0.2376623442474372	      0.8709932244720270	      1.0941433072585631	     -0.2406238328023827	      1.0186324710864441	      0.6157818891692466	     -0.1308468106553916	      0.8941342803091379	      0.5513382927514597	     -0.3568854030475497	      0.9541258378588479	      0.6288779126079339	     -0.0950189550593721	      0.8809965522383545	      0.6011955434462909	     -0.2917746790013623	      0.9673224061047356	      0.5723702672931929	     -0.1002442282336343	      0.8648642048406586	      0.5458177627866380	     -0.2813029962075852	      1.0171623733110222	      0.1867986145389676	     -0.1241495176956191	      0.7283284299970348	      0.1622714191628220	     -0.3883228891158028	      0.9414369593045942	      0.1835624043118788	     -0.1462341782177615	      0.7308092998756400	      0.1577217086087208	     -0.3080709957295525	      0.9576137052297776	      0.0691768069078201	     -0.1399923782950417	      0.8184928486435494	      0.0448087415293722	     -0.2595586976626808	
